# xmcd
#
# Track frame offsets:
#	150
#	21495
#	34405
#	46125
#	59683
#	71767
#	83306
#	98673
#	117521
#	129647
#	143489
#	159540
#	180999
#	192876
#	206345
#	220008
#	233451
#	251364
#	265191
#	276978
#	300232
#
# Disc length: 4194 seconds
#
# Revision: 4
# Processed by: cddbd v1.5.2PL0 Copyright (c) Steve Scherf et al.
# Submitted via: audiograbber 1.83.01
#
DISCID=1c106015
DTITLE=Various Artist - Die Hit Giganten - Country and Folk CD 1-2
DYEAR=2009
DGENRE=Country and Folk
TTITLE0=LYNYRD SKYNYRD - Sweet Home Alabama
TTITLE1=J. J. CALE - Cocaine
TTITLE2=JOHNNY CASH - Ring Of Fire
TTITLE3=TEXAS LIGHTNING - No No Never
TTITLE4=TAMMY WYNETTE - Stand By Your Man
TTITLE5=WILLIE NELSON - On The Road Again
TTITLE6=BILLY RAY CYRUS - Achy Breaky Heart
TTITLE7=THE BOSSHOSS - Word Up
TTITLE8=GUY MITCHELL - Heartaches By The Number
TTITLE9=TOM JONES - Green Green Grass Of Home
TTITLE10=KENNY ROGERS - Lucille
TTITLE11=JONNY HILL - Ruf Teddybär eins-vier 
TTITLE12=TELLY SAVALAS - Some Broken Hearts Never Mend
TTITLE13=GUNTER GABRIEL - Hey Boss, ich brauch mehr Geld
TTITLE14=THE KINGSTON TRIO - Tom Dooley
TTITLE15=LORETTA LYNN - Coal Miner's Daughter
TTITLE16=BILLY SWAN - I Can Help
TTITLE17=VAN MORRISON - Brown Eyed Girl
TTITLE18=BUFFALO SPRINGFIELD - For What It's Worth
TTITLE19=SIMON and GARFUNKEL - The Boxer (El Boxeador)
TTITLE20=JOHN DENVER - Take Me Home, Country Roads
EXTD=
EXTT0=
EXTT1=
EXTT2=
EXTT3=
EXTT4=
EXTT5=
EXTT6=
EXTT7=
EXTT8=
EXTT9=
EXTT10=
EXTT11=
EXTT12=
EXTT13=
EXTT14=
EXTT15=
EXTT16=
EXTT17=
EXTT18=
EXTT19=
EXTT20=
PLAYORDER=
